<svg width="58" height="59" viewBox="0 0 58 59" fill="none" xmlns="http://www.w3.org/2000/svg">
<g filter="url(#filter0_dd_20005153_2702)">
<rect x="11" y="7" width="36" height="36" rx="18" fill="white"/>
<rect x="11.5" y="7.5" width="35" height="35" rx="17.5" stroke="#E2E5F1"/>
<path d="M27.3332 24.1668H24.9173C24.9173 24.1643 24.9173 24.1618 24.9182 24.1593C24.9723 23.8935 25.054 23.6309 25.1607 23.3784C25.2657 23.1309 25.3948 22.8926 25.5448 22.6701C25.6932 22.4501 25.8648 22.2426 26.0532 22.0535C26.2423 21.8651 26.4498 21.6935 26.6715 21.5443C26.8932 21.3943 27.1307 21.266 27.3782 21.161C27.6298 21.0543 27.8923 20.9726 28.1598 20.9185C28.7082 20.806 29.2907 20.806 29.8415 20.9185C30.1065 20.9726 30.3698 21.0543 30.6223 21.161C30.869 21.2651 31.1065 21.3951 31.3307 21.5451C31.5523 21.6943 31.759 21.8651 31.9457 22.0526L33.1257 20.876C32.864 20.6126 32.5723 20.3726 32.2623 20.1635C31.9515 19.9535 31.6182 19.7718 31.2723 19.6251C30.9182 19.4751 30.549 19.361 30.1765 19.2851C29.4073 19.1276 28.594 19.1276 27.8273 19.2851C27.4532 19.3618 27.084 19.476 26.7307 19.626C26.3815 19.7726 26.0482 19.9535 25.7382 20.1635C25.4298 20.371 25.1398 20.611 24.8748 20.8751C24.6098 21.1393 24.3707 21.4301 24.164 21.7376C23.954 22.0485 23.7723 22.3818 23.6257 22.7293C23.4757 23.0826 23.3615 23.4518 23.2857 23.8251C23.2623 23.9376 23.2498 24.0526 23.2332 24.1668H20.6665L23.9998 27.5001L27.3332 24.1668ZM30.6665 25.8335H33.0823C33.0815 25.8359 33.0823 25.8385 33.0815 25.8401C33.0265 26.1101 32.9448 26.3726 32.8382 26.6218C32.7357 26.866 32.6065 27.1043 32.4557 27.3285C32.3065 27.5485 32.1348 27.7568 31.9448 27.9468C31.7573 28.1343 31.5507 28.3051 31.329 28.4551C31.1057 28.6051 30.8682 28.7343 30.6215 28.8393C30.369 28.946 30.1065 29.0276 29.8398 29.0818C29.2923 29.1943 28.709 29.1943 28.159 29.0818C27.8932 29.0276 27.6307 28.946 27.3782 28.8393C27.1307 28.7343 26.8923 28.6051 26.6698 28.4551C26.4498 28.3068 26.2423 28.1351 26.0532 27.9468L24.8748 29.1251C25.139 29.3893 25.4298 29.6293 25.7373 29.8368C26.0482 30.0468 26.3815 30.2285 26.729 30.3751C27.0823 30.5251 27.4515 30.6393 27.8248 30.7151C28.209 30.7935 28.604 30.8335 28.9998 30.8335C29.3957 30.8335 29.7907 30.7935 30.1732 30.7151C30.5473 30.6393 30.9173 30.5243 31.2707 30.3743C31.6165 30.2276 31.9498 30.0468 32.2607 29.8368C32.5707 29.6276 32.8623 29.3868 33.1232 29.1251C33.3873 28.861 33.6273 28.5701 33.8357 28.261C34.0473 27.9468 34.229 27.6135 34.3732 27.2718C34.5215 26.9218 34.6357 26.5526 34.7132 26.1751C34.7357 26.0626 34.749 25.9476 34.7657 25.8335H37.3332L33.9998 22.5001L30.6665 25.8335Z" fill="#33354D"/>
</g>
<defs>
<filter id="filter0_dd_20005153_2702" x="0" y="0.4" width="58" height="58" filterUnits="userSpaceOnUse" color-interpolation-filters="sRGB">
<feFlood flood-opacity="0" result="BackgroundImageFix"/>
<feColorMatrix in="SourceAlpha" type="matrix" values="0 0 0 0 0 0 0 0 0 0 0 0 0 0 0 0 0 0 127 0" result="hardAlpha"/>
<feMorphology radius="1" operator="erode" in="SourceAlpha" result="effect1_dropShadow_20005153_2702"/>
<feOffset dy="2"/>
<feGaussianBlur stdDeviation="3.2"/>
<feColorMatrix type="matrix" values="0 0 0 0 0.0745098 0 0 0 0 0.0627451 0 0 0 0 0.133333 0 0 0 0.03 0"/>
<feBlend mode="normal" in2="BackgroundImageFix" result="effect1_dropShadow_20005153_2702"/>
<feColorMatrix in="SourceAlpha" type="matrix" values="0 0 0 0 0 0 0 0 0 0 0 0 0 0 0 0 0 0 127 0" result="hardAlpha"/>
<feMorphology radius="1" operator="erode" in="SourceAlpha" result="effect2_dropShadow_20005153_2702"/>
<feOffset dy="4.4"/>
<feGaussianBlur stdDeviation="6"/>
<feColorMatrix type="matrix" values="0 0 0 0 0.0745098 0 0 0 0 0.0627451 0 0 0 0 0.133333 0 0 0 0.06 0"/>
<feBlend mode="normal" in2="effect1_dropShadow_20005153_2702" result="effect2_dropShadow_20005153_2702"/>
<feBlend mode="normal" in="SourceGraphic" in2="effect2_dropShadow_20005153_2702" result="shape"/>
</filter>
</defs>
</svg>
