<svg width="72" height="72" viewBox="0 0 72 72" fill="none" xmlns="http://www.w3.org/2000/svg">
<rect width="72" height="72" rx="8" fill="white" fill-opacity="0.04"/>
<g clip-path="url(#clip0_20005153_5753)">
<path d="M35.9222 56C35.6826 56 35.4434 55.9451 35.2233 55.8352C35.0405 55.7437 30.6954 53.5406 26.1492 48.5989C23.4844 45.7028 21.2957 42.4551 19.6435 38.9465C17.5799 34.5641 16.3552 29.7662 16.0028 24.6859C15.9741 24.2715 16.1117 23.8629 16.3848 23.55C16.6583 23.2372 17.0446 23.0459 17.4594 23.0187C20.321 22.8307 22.5628 20.4342 22.5628 17.5625C22.5628 16.6995 23.2623 16 24.1253 16H47.8753C48.738 16 49.4378 16.6995 49.4378 17.5625C49.4378 20.4324 51.6781 22.8289 54.5382 23.0187C54.9594 23.0465 55.3512 23.2437 55.6246 23.565C55.8984 23.8864 56.0302 24.3047 55.9905 24.725C55.4562 30.3658 53.8986 35.6417 51.3607 40.4064C50.9548 41.1682 50.0085 41.4565 49.2471 41.051C48.4854 40.6454 48.197 39.699 48.6025 38.9373C50.7284 34.9462 52.1099 30.5578 52.7175 25.8737C49.5181 25.0302 47.0602 22.3843 46.4559 19.125H25.5447C24.938 22.3983 22.4621 25.0524 19.2428 25.884C20.064 33.7667 23.128 40.6588 28.3618 46.3882C31.4947 49.8174 34.5663 51.8408 35.9133 52.6415C37.3873 51.7449 40.9521 49.3356 44.4225 45.158C44.974 44.494 45.9588 44.403 46.6229 44.9545C47.2866 45.5059 47.3779 46.491 46.8264 47.1548C41.8875 53.1002 36.8463 55.7198 36.6339 55.8285C36.4105 55.9429 36.1663 56 35.9222 56Z" fill="#6366F1"/>
<path d="M37.1306 47.5444C37.651 46.8556 37.5145 45.876 36.8264 45.3557C35.4754 44.3349 34.197 43.1773 33.0263 41.9157C29.6227 38.2463 27.3134 33.9351 26.1535 29.0883C26.7785 28.6055 27.3665 28.0721 27.9094 27.4947C28.8097 26.5367 29.5785 25.4671 30.1943 24.3147C30.6008 23.5536 30.3133 22.607 29.5522 22.2002C28.7911 21.7937 27.8444 22.0811 27.438 22.8423C26.9518 23.7517 26.3445 24.5967 25.6328 25.3542C25.0054 26.0216 24.3023 26.6139 23.5436 27.1153C23.0114 27.4669 22.7462 28.1068 22.874 28.7321C24.0636 34.5491 26.7083 39.6999 30.7354 44.041C32.0299 45.4366 33.4453 46.718 34.9422 47.849C35.2242 48.062 35.555 48.1648 35.8831 48.1648C36.3561 48.1648 36.8236 47.9509 37.1306 47.5444Z" fill="#D946EF"/>
</g>
<defs>
<clipPath id="clip0_20005153_5753">
<rect width="40" height="40" fill="white" transform="translate(16 16)"/>
</clipPath>
</defs>
</svg>
