<svg width="113" height="44" viewBox="0 0 113 44" fill="none" xmlns="http://www.w3.org/2000/svg">
<path d="M13.0288 13.4764V9.97644H1.72876V34.0235H13.0288V30.5235C10.7139 30.5235 8.49392 29.6254 6.85714 28.027C5.22032 26.4285 4.30077 24.2606 4.30077 22C4.30077 19.7394 5.22032 17.5714 6.85714 15.9729C8.49392 14.3745 10.7139 13.4764 13.0288 13.4764Z" fill="#B4B7C9"/>
<path d="M13.0286 13.4764V30.5235C15.3434 30.5235 17.5634 29.6254 19.2002 28.027C20.837 26.4285 21.7565 24.2606 21.7565 22C21.7565 19.7394 20.837 17.5714 19.2002 15.9729C17.5634 14.3745 15.3434 13.4764 13.0286 13.4764Z" fill="#B4B7C9"/>
<path d="M28.0981 15.6177H30.628V27.5177H28.0981V15.6177Z" fill="#B4B7C9"/>
<path d="M32.0446 23.4412C32.0446 22.5851 32.3049 21.7482 32.7925 21.0367C33.2801 20.3252 33.973 19.771 34.7835 19.4445C35.594 19.118 36.4854 19.0339 37.3449 19.2027C38.2044 19.3715 38.9932 19.7858 39.6113 20.3929C40.2294 21 40.6491 21.7727 40.8171 22.613C40.985 23.4533 40.8938 24.3234 40.5548 25.113C40.2158 25.9025 39.6444 26.5761 38.9131 27.0481C38.1817 27.5203 37.3232 27.7696 36.4465 27.7648C35.8651 27.7692 35.2885 27.6603 34.7508 27.4442C34.213 27.2282 33.7247 26.9094 33.3147 26.5068C32.9047 26.1041 32.5813 25.6255 32.3631 25.0991C32.145 24.5727 32.0367 24.0091 32.0446 23.4412ZM38.3861 23.4412C38.3761 23.0721 38.255 22.7141 38.0377 22.4119C37.8205 22.1097 37.5169 21.8767 37.1648 21.7421C36.8127 21.6076 36.4278 21.5773 36.0583 21.6553C35.6887 21.7332 35.3508 21.9158 35.087 22.1803C34.8231 22.4448 34.6449 22.7793 34.5748 23.1421C34.5046 23.505 34.5455 23.8799 34.6924 24.2201C34.8393 24.5603 35.0856 24.8508 35.4007 25.0549C35.7157 25.2592 36.0853 25.3681 36.4634 25.3683C36.7209 25.3732 36.9765 25.3262 37.2145 25.2302C37.4525 25.1342 37.6676 24.9914 37.8465 24.8105C38.0253 24.6297 38.164 24.4146 38.254 24.1791C38.344 23.9435 38.3832 23.6923 38.3692 23.4412H38.3861Z" fill="#B4B7C9"/>
<path d="M50.8584 19.3647V27.1141C50.8584 29.8482 48.6659 31.0094 46.4481 31.0094C45.6657 31.0721 44.8811 30.9203 44.1824 30.5711C43.4837 30.222 42.8986 29.6892 42.493 29.033L44.6266 27.8306C44.7994 28.171 45.0744 28.4519 45.4149 28.6358C45.7555 28.8197 46.1452 28.8979 46.5324 28.86C46.779 28.8897 47.0293 28.8658 47.2654 28.79C47.5015 28.7142 47.7174 28.5884 47.8979 28.4216C48.0785 28.2547 48.2189 28.0511 48.3094 27.825C48.3999 27.599 48.4381 27.3562 48.4213 27.1141V26.3647C48.1269 26.7133 47.7534 26.99 47.3304 27.173C46.9073 27.356 46.4464 27.4402 45.9842 27.4188C44.866 27.4188 43.7936 26.985 43.0028 26.2128C42.2121 25.4406 41.7678 24.3933 41.7678 23.3012C41.7678 22.2091 42.2121 21.1618 43.0028 20.3896C43.7936 19.6174 44.866 19.1835 45.9842 19.1835C46.4464 19.1622 46.9073 19.2464 47.3304 19.4294C47.7534 19.6124 48.1269 19.8891 48.4213 20.2377V19.4141L50.8584 19.3647ZM48.4213 23.2765C48.4381 22.8825 48.3339 22.4926 48.122 22.1569C47.9101 21.8212 47.6002 21.5551 47.2321 21.3928C46.8641 21.2305 46.4549 21.1794 46.0569 21.2462C45.6589 21.3129 45.2904 21.4943 44.9989 21.7671C44.7073 22.04 44.5061 22.3918 44.4209 22.7773C44.3357 23.1628 44.3705 23.5642 44.5209 23.9302C44.6713 24.2962 44.9304 24.6099 45.2648 24.8309C45.5992 25.0519 45.9937 25.1703 46.3975 25.1706C46.661 25.1891 46.9255 25.1535 47.1739 25.066C47.4225 24.9785 47.6495 24.841 47.8401 24.6625C48.0309 24.484 48.1812 24.2684 48.2813 24.0297C48.3814 23.7909 48.4291 23.5343 48.4213 23.2765Z" fill="#B4B7C9"/>
<path d="M52.2835 23.4412C52.2835 22.5857 52.5434 21.7495 53.0302 21.0383C53.5171 20.3271 54.209 19.773 55.0184 19.446C55.8279 19.119 56.7185 19.0339 57.5775 19.2014C58.4366 19.3689 59.2254 19.7815 59.8443 20.3869C60.4631 20.9925 60.8841 21.7636 61.0539 22.6028C61.2238 23.442 61.1349 24.3116 60.7986 25.1015C60.4622 25.8914 59.8934 26.566 59.1643 27.0401C58.4351 27.5142 57.5783 27.7664 56.7023 27.7648C56.1198 27.7703 55.5419 27.6621 55.0027 27.4467C54.4635 27.2313 53.9737 26.9129 53.5622 26.5102C53.1506 26.1075 52.8255 25.6286 52.6059 25.1016C52.3864 24.5746 52.2768 24.0101 52.2835 23.4412ZM58.625 23.4412C58.615 23.0718 58.4936 22.7134 58.276 22.411C58.0585 22.1087 57.7543 21.8757 57.4017 21.7414C57.0491 21.6071 56.6638 21.5773 56.2941 21.656C55.9243 21.7345 55.5865 21.918 55.3229 22.1833C55.0594 22.4485 54.8819 22.7839 54.8128 23.1472C54.7435 23.5106 54.7856 23.8858 54.9338 24.2258C55.0819 24.5659 55.3296 24.8557 55.6458 25.059C55.9618 25.2621 56.3323 25.3698 56.7107 25.3683C56.9682 25.3732 57.2239 25.3262 57.4618 25.2302C57.6998 25.1342 57.9149 24.9914 58.0938 24.8105C58.2727 24.6297 58.4114 24.4146 58.5014 24.1791C58.5913 23.9435 58.6306 23.6923 58.6166 23.4412H58.625Z" fill="#B4B7C9"/>
<path d="M62.2935 17.1823C62.2935 16.8924 62.3815 16.609 62.5464 16.3679C62.7114 16.1268 62.9458 15.939 63.2201 15.828C63.4944 15.7171 63.7962 15.688 64.0874 15.7446C64.3785 15.8012 64.646 15.9408 64.8559 16.1458C65.0658 16.3508 65.2088 16.612 65.2667 16.8963C65.3246 17.1807 65.2949 17.4754 65.1813 17.7433C65.0677 18.0111 64.8752 18.2401 64.6284 18.4011C64.3816 18.5622 64.0914 18.6482 63.7945 18.6482C63.3977 18.6439 63.0185 18.4881 62.738 18.2141C62.4574 17.9401 62.2978 17.5698 62.2935 17.1823ZM62.538 19.3647H65.0679V27.5176H62.538V19.3647Z" fill="#B4B7C9"/>
<path d="M75.8954 23.4412C75.9237 23.9834 75.842 24.5258 75.6549 25.0371C75.4678 25.5483 75.179 26.0184 74.8052 26.4202C74.4313 26.8221 73.9798 27.1477 73.4765 27.3784C72.9733 27.6092 72.4283 27.7405 71.8729 27.7647C71.4016 27.7954 70.9293 27.7217 70.4913 27.5491C70.0532 27.3765 69.6607 27.1096 69.3431 26.7683V30.7953H66.8132V19.3647H69.3431V20.1306C69.6612 19.7903 70.054 19.5246 70.4921 19.3535C70.9301 19.1823 71.4022 19.1101 71.8729 19.1424C72.4261 19.1667 72.9689 19.2972 73.4704 19.5264C73.9719 19.7556 74.4223 20.0791 74.7958 20.4782C75.1694 20.8774 75.4587 21.3445 75.6474 21.853C75.836 22.3613 75.9204 22.901 75.8954 23.4412ZM73.3655 23.4412C73.3556 23.0587 73.2302 22.6876 73.0052 22.3744C72.7802 22.0612 72.4655 21.8198 72.1006 21.6805C71.7357 21.5412 71.3369 21.5102 70.9539 21.5913C70.5711 21.6724 70.2213 21.8622 69.9483 22.1367C69.6753 22.4111 69.4914 22.7582 69.4197 23.1344C69.3478 23.5105 69.3912 23.8989 69.5445 24.2511C69.6979 24.6031 69.9541 24.9032 70.2813 25.1137C70.6085 25.3242 70.992 25.4356 71.3838 25.4342C71.6522 25.4453 71.9199 25.4009 72.1694 25.3039C72.419 25.2069 72.6448 25.0595 72.8319 24.8713C73.019 24.6831 73.1632 24.4584 73.2552 24.212C73.3472 23.9655 73.3848 23.7029 73.3655 23.4412Z" fill="#B4B7C9"/>
<path d="M83.5948 25.0717C83.5948 26.9493 81.9082 27.7481 80.1205 27.7481C79.3913 27.8122 78.6592 27.6613 78.0188 27.3148C77.3784 26.9683 76.8591 26.4423 76.5281 25.8046L78.7037 24.6023C78.7899 24.8961 78.9768 25.1521 79.2332 25.3275C79.4895 25.503 79.7998 25.587 80.112 25.5658C80.7108 25.5658 81.0143 25.3846 81.0143 25.0552C81.0143 24.1576 76.9076 24.6352 76.9076 21.8105C76.9076 20.0317 78.4423 19.1423 80.1795 19.1423C80.8398 19.1134 81.4958 19.2597 82.0778 19.5656C82.6598 19.8716 83.1461 20.3258 83.4851 20.8799L81.3095 21.9999C81.2133 21.7874 81.0563 21.6068 80.8573 21.4796C80.6582 21.3524 80.4257 21.2843 80.1879 21.2834C79.7494 21.2834 79.488 21.4481 79.488 21.7364C79.488 22.6752 83.5948 22.0576 83.5948 25.0717Z" fill="#B4B7C9"/>
<path d="M92.7613 19.3647V27.5177H90.2315V26.7518C89.9439 27.0909 89.5788 27.3591 89.1664 27.5351C88.7532 27.7111 88.3037 27.7897 87.8534 27.7647C86.1669 27.7647 84.7249 26.5871 84.7249 24.3883V19.3647H87.2547V24.0177C87.2345 24.2122 87.2581 24.4086 87.3239 24.5934C87.3896 24.7781 87.495 24.9468 87.6333 25.0878C87.7725 25.2287 87.9411 25.3385 88.1275 25.4098C88.3139 25.4809 88.5137 25.5117 88.7136 25.5C89.6243 25.5 90.2652 24.973 90.2652 23.853V19.3647H92.7613Z" fill="#B4B7C9"/>
<path d="M107.097 22.5105V27.5176H104.567V22.7246C104.567 21.9011 104.171 21.3905 103.37 21.3905C102.569 21.3905 102.063 21.9588 102.063 22.9223V27.5176H99.5329V22.7246C99.5329 21.9011 99.1366 21.3905 98.3355 21.3905C97.5344 21.3905 97.0284 21.9588 97.0284 22.9223V27.5176H94.4985V19.3646H97.0284V20.1141C97.2906 19.783 97.6322 19.5208 98.0243 19.3511C98.4156 19.1815 98.8448 19.1097 99.2715 19.1423C99.6991 19.1205 100.126 19.2078 100.509 19.3954C100.891 19.5831 101.218 19.8649 101.456 20.2129C101.734 19.8492 102.102 19.5603 102.525 19.3731C102.947 19.1859 103.413 19.1065 103.876 19.1423C105.849 19.1423 107.097 20.4764 107.097 22.5105Z" fill="#B4B7C9"/>
<path d="M109.222 19.3153C110.247 19.3153 111.077 18.5041 111.077 17.5035C111.077 16.5029 110.247 15.6918 109.222 15.6918C108.198 15.6918 107.367 16.5029 107.367 17.5035C107.367 18.5041 108.198 19.3153 109.222 19.3153Z" fill="#B4B7C9"/>
</svg>
