<svg width="113" height="44" viewBox="0 0 113 44" fill="none" xmlns="http://www.w3.org/2000/svg">
<path d="M18.0953 20.6968C17.7894 21.0019 17.5552 21.37 17.4093 21.775C17.2633 22.18 17.2093 22.612 17.2511 23.04L17.2365 23.0256C17.2795 23.5296 17.2109 24.0366 17.0356 24.5116C16.8604 24.9864 16.5827 25.4177 16.222 25.7753C15.8612 26.1328 15.4261 26.4081 14.9469 26.5817C14.4678 26.7554 13.9561 26.8234 13.4478 26.7808L13.4623 26.7952C12.8542 26.7392 12.2435 26.8703 11.7132 27.1708C11.1831 27.4714 10.7594 27.9267 10.4999 28.4747C10.2404 29.0227 10.1576 29.6366 10.2631 30.2329C10.3685 30.8292 10.6569 31.3787 11.089 31.8065C11.5211 32.2344 12.0757 32.5197 12.6774 32.6236C13.2791 32.7276 13.8984 32.6451 14.4511 32.3874C15.0037 32.1296 15.4627 31.7093 15.7654 31.1836C16.0682 30.6578 16.2 30.0524 16.1428 29.4496L16.1582 29.464C16.1152 28.9602 16.1838 28.4531 16.359 27.9781C16.5342 27.5032 16.812 27.072 17.1727 26.7144C17.5335 26.3568 17.9686 26.0816 18.4477 25.908C18.9269 25.7343 19.4385 25.6663 19.9469 25.7088L19.9316 25.6944C20.4283 25.7387 20.9283 25.658 21.3852 25.4597C21.8421 25.2615 22.2411 24.9521 22.5453 24.5604C22.8494 24.1686 23.0489 23.707 23.1251 23.2185C23.2014 22.73 23.152 22.2303 22.9815 21.7656C22.8111 21.3011 22.525 20.8867 22.1499 20.5608C21.7748 20.235 21.3228 20.0083 20.8358 19.9017C20.3488 19.7952 19.8425 19.8121 19.3638 19.9511C18.8852 20.0901 18.4497 20.3466 18.0977 20.6968H18.0953Z" fill="#B4B7C9"/>
<path d="M12.141 24.9087L12.1257 24.8943C12.5577 24.9374 12.9941 24.8849 13.4032 24.7404C13.8123 24.5959 14.1839 24.3632 14.4911 24.059C14.7982 23.7547 15.0334 23.3866 15.1794 22.9812C15.3255 22.5758 15.3789 22.1434 15.3357 21.7151L15.351 21.7295C15.3081 21.2256 15.3767 20.7186 15.5518 20.2436C15.7271 19.7687 16.0048 19.3374 16.3655 18.9798C16.7263 18.6223 17.1614 18.347 17.6406 18.1734C18.1198 17.9997 18.6313 17.9318 19.1397 17.9743L19.1244 17.9599C19.7326 18.0166 20.3435 17.8858 20.874 17.5856C21.4045 17.2854 21.8286 16.8303 22.0885 16.2824C22.3484 15.7345 22.4314 15.1205 22.3263 14.5241C22.2213 13.9277 21.9331 13.3779 21.5011 12.9498C21.0692 12.5217 20.5145 12.2361 19.9128 12.1319C19.3111 12.0277 18.6916 12.1101 18.1388 12.3677C17.586 12.6253 17.1269 13.0456 16.824 13.5714C16.521 14.0972 16.3892 14.7027 16.4463 15.3055L16.4318 15.2903C16.4748 15.7942 16.4064 16.3014 16.2312 16.7764C16.0561 17.2513 15.7783 17.6827 15.4176 18.0403C15.0568 18.3978 14.6216 18.6731 14.1424 18.8467C13.6631 19.0203 13.1515 19.0882 12.643 19.0455L12.6576 19.0607C12.2255 19.0176 11.7891 19.0702 11.38 19.2146C10.971 19.359 10.5994 19.5918 10.2922 19.8961C9.98497 20.2003 9.74985 20.5685 9.60375 20.9738C9.45774 21.3792 9.40439 21.8116 9.44757 22.2399L9.43304 22.2255C9.47582 22.7294 9.40713 23.2364 9.2319 23.7113C9.05659 24.1861 8.77893 24.6174 8.41822 24.9749C8.05748 25.3324 7.6224 25.6076 7.14331 25.7814C6.66422 25.955 6.15266 26.0231 5.64431 25.9807L5.65884 25.9951C5.05068 25.9385 4.43969 26.0692 3.90923 26.3694C3.37878 26.6697 2.95466 27.1247 2.69476 27.6726C2.43484 28.2206 2.35177 28.8346 2.45688 29.431C2.562 30.0274 2.85018 30.5771 3.28211 31.0052C3.71404 31.4334 4.26869 31.719 4.87043 31.8231C5.47216 31.9273 6.09167 31.845 6.64445 31.5874C7.19723 31.3298 7.65639 30.9094 7.95928 30.3837C8.2622 29.8578 8.39409 29.2523 8.33694 28.6495L8.35228 28.6639C8.30934 28.16 8.37795 27.653 8.55318 27.178C8.72833 26.7031 9.00606 26.2718 9.36678 25.9142C9.72757 25.5567 10.1627 25.2814 10.6418 25.1078C11.121 24.9342 11.6326 24.8662 12.141 24.9087Z" fill="#B4B7C9"/>
<path d="M6.7316 23.3032C7.03753 22.9983 7.27174 22.6301 7.41754 22.2251C7.56335 21.82 7.61714 21.388 7.57507 20.96L7.59039 20.9744C7.54745 20.4704 7.61603 19.9632 7.79135 19.4881C7.96667 19.0131 8.24451 18.5817 8.60547 18.2241C8.96642 17.8665 9.40171 17.5914 9.88107 17.4178C10.3604 17.2442 10.8722 17.1765 11.3807 17.2192L11.3654 17.2048C11.9733 17.2613 12.5841 17.1305 13.1143 16.8303C13.6445 16.5301 14.0684 16.0752 14.3282 15.5274C14.5879 14.9797 14.6709 14.3659 14.5658 13.7697C14.4607 13.1735 14.1726 12.624 13.7408 12.196C13.3091 11.7681 12.7546 11.4826 12.1531 11.3784C11.5516 11.2742 10.9323 11.3565 10.3797 11.6139C9.82708 11.8714 9.36805 12.2915 9.06521 12.817C8.76229 13.3425 8.63032 13.9479 8.68731 14.5504L8.67278 14.536C8.71572 15.0399 8.64711 15.547 8.47188 16.0219C8.29665 16.4968 8.01901 16.9281 7.65825 17.2857C7.2975 17.6433 6.86235 17.9185 6.3832 18.0921C5.90405 18.2658 5.39243 18.3338 4.88405 18.2912L4.89858 18.3056C4.40184 18.2615 3.90189 18.3424 3.44506 18.5407C2.98824 18.739 2.5893 19.0484 2.28525 19.4403C1.98119 19.832 1.78184 20.2936 1.70566 20.7821C1.62949 21.2707 1.67896 21.7704 1.84949 22.2348C2.02001 22.6994 2.30609 23.1137 2.68119 23.4395C3.05629 23.7653 3.50829 23.992 3.99531 24.0985C4.48231 24.205 4.98858 24.188 5.46719 24.049C5.94579 23.91 6.38125 23.6535 6.73321 23.3032H6.7316Z" fill="#B4B7C9"/>
<path d="M31.7344 15.3241H34.1316V26.8865H31.7344V15.3241Z" fill="#B4B7C9"/>
<path d="M35.4894 22.9272C35.4861 22.0963 35.7316 21.283 36.1949 20.5905C36.6582 19.898 37.3184 19.3574 38.092 19.0372C38.8656 18.7168 39.7176 18.6313 40.5402 18.7914C41.3629 18.9515 42.1191 19.3499 42.7131 19.9363C43.307 20.5226 43.7121 21.2705 43.8769 22.0852C44.0417 22.9 43.9588 23.7448 43.6388 24.5128C43.3187 25.2808 42.7759 25.9374 42.0791 26.3993C41.3822 26.8613 40.5628 27.108 39.7245 27.108C39.168 27.1143 38.6158 27.0105 38.1002 26.8028C37.5846 26.5952 37.116 26.2877 36.7217 25.8985C36.3273 25.5092 36.0153 25.046 35.8038 24.5358C35.5921 24.0256 35.4853 23.4788 35.4894 22.9272ZM41.5623 22.9272C41.5523 22.569 41.436 22.2217 41.228 21.9287C41.0199 21.6357 40.7293 21.41 40.3926 21.2798C40.0558 21.1496 39.6878 21.1206 39.3345 21.1966C38.9812 21.2726 38.6584 21.45 38.4063 21.7069C38.1543 21.9637 37.9842 22.2885 37.9174 22.6407C37.8506 22.9928 37.8899 23.3566 38.0306 23.6867C38.1713 24.0168 38.407 24.2984 38.7082 24.4964C39.0095 24.6944 39.363 24.8 39.7245 24.8C39.972 24.8065 40.2183 24.7621 40.4477 24.6696C40.6771 24.5772 40.8847 24.4386 41.0574 24.2627C41.23 24.0867 41.3641 23.8772 41.4509 23.6473C41.5379 23.4175 41.5758 23.1723 41.5623 22.9272Z" fill="#B4B7C9"/>
<path d="M53.5137 18.9673V26.4873C53.5137 29.1481 51.42 30.2729 49.2947 30.2729C48.5465 30.3284 47.7973 30.1785 47.1292 29.8399C46.4612 29.5012 45.9001 28.9867 45.5076 28.3529L47.5529 27.1809C47.7179 27.5113 47.9808 27.7838 48.3063 27.9621C48.6319 28.1404 49.0047 28.2159 49.3747 28.1785C49.6111 28.2109 49.852 28.1903 50.0794 28.1181C50.3067 28.0458 50.5147 27.9238 50.6881 27.7612C50.8615 27.5985 50.9957 27.3993 51.081 27.1781C51.1661 26.9571 51.2 26.7199 51.1802 26.4841V25.7601C50.8995 26.1005 50.5423 26.3709 50.137 26.5497C49.7317 26.7285 49.2899 26.8107 48.8468 26.7897C47.7925 26.7567 46.7925 26.3185 46.0585 25.5676C45.3245 24.8168 44.9141 23.8123 44.9141 22.7669C44.9141 21.7214 45.3245 20.7169 46.0585 19.9661C46.7925 19.2153 47.7925 18.777 48.8468 18.7441C49.2899 18.723 49.7317 18.8052 50.137 18.984C50.5423 19.1628 50.8995 19.4333 51.1802 19.7737V18.9657L53.5137 18.9673ZM51.181 22.7681C51.1972 22.3852 51.0973 22.0062 50.8943 21.6801C50.6913 21.3538 50.3944 21.0953 50.0419 20.9378C49.6894 20.7802 49.2975 20.7309 48.9164 20.796C48.5354 20.8611 48.1827 21.0377 47.9038 21.3033C47.6249 21.5687 47.4326 21.9108 47.3515 22.2855C47.2704 22.6602 47.3043 23.0505 47.449 23.4059C47.5935 23.7613 47.8421 24.0658 48.1627 24.2801C48.4833 24.4943 48.8613 24.6085 49.2479 24.6081C49.4998 24.6255 49.7526 24.5905 49.9899 24.5052C50.2273 24.4199 50.444 24.2862 50.6261 24.1129C50.8082 23.9396 50.9517 23.7304 51.0473 23.4987C51.1429 23.2671 51.1885 23.0182 51.181 22.7681Z" fill="#B4B7C9"/>
<path d="M54.8712 22.9272C54.8679 22.0963 55.1134 21.283 55.5767 20.5905C56.04 19.898 56.7003 19.3574 57.4738 19.0372C58.2474 18.7168 59.0994 18.6313 59.9221 18.7914C60.7447 18.9515 61.5009 19.3499 62.0949 19.9363C62.6889 20.5226 63.0939 21.2705 63.2587 22.0852C63.4235 22.9 63.3406 23.7448 63.0206 24.5128C62.7006 25.2808 62.1578 25.9374 61.461 26.3993C60.7641 26.8613 59.9447 27.108 59.1063 27.108C58.5498 27.1143 57.9976 27.0105 57.4821 26.8028C56.9665 26.5952 56.4978 26.2877 56.1036 25.8985C55.7092 25.5092 55.3971 25.046 55.1856 24.5358C54.974 24.0256 54.8671 23.4788 54.8712 22.9272ZM60.9441 22.9272C60.9341 22.569 60.8178 22.2217 60.6098 21.9287C60.4017 21.6357 60.1112 21.41 59.7744 21.2798C59.4376 21.1496 59.0696 21.1206 58.7164 21.1966C58.3631 21.2726 58.0402 21.45 57.7881 21.7069C57.5362 21.9637 57.366 22.2885 57.2992 22.6407C57.2323 22.9928 57.2717 23.3566 57.4124 23.6867C57.5531 24.0168 57.7888 24.2984 58.09 24.4964C58.3913 24.6944 58.7448 24.8 59.1063 24.8C59.3538 24.8065 59.6001 24.7621 59.8295 24.6696C60.059 24.5772 60.2666 24.4386 60.4392 24.2627C60.6119 24.0867 60.7459 23.8772 60.8328 23.6473C60.9197 23.4175 60.9576 23.1723 60.9441 22.9272Z" fill="#B4B7C9"/>
<path d="M64.4592 16.8448C64.4592 16.5628 64.5436 16.2872 64.7016 16.0528C64.8597 15.8183 65.0844 15.6356 65.3472 15.5277C65.61 15.4198 65.8992 15.3916 66.1782 15.4466C66.4572 15.5016 66.7135 15.6374 66.9146 15.8367C67.1158 16.0361 67.2528 16.2901 67.3083 16.5667C67.3637 16.8432 67.3352 17.1298 67.2264 17.3903C67.1176 17.6508 66.9332 17.8735 66.6966 18.0302C66.4601 18.1868 66.1821 18.2704 65.8976 18.2704C65.5173 18.2666 65.1536 18.1153 64.8847 17.8487C64.6158 17.5822 64.463 17.2217 64.4592 16.8448ZM64.7014 18.9672H67.0994V26.8872H64.6981L64.7014 18.9672Z" fill="#B4B7C9"/>
<path d="M77.4501 22.9272C77.4778 23.4507 77.4009 23.9743 77.2237 24.4682C77.0465 24.962 76.7725 25.4163 76.4176 25.8048C76.0627 26.1933 75.6337 26.5085 75.1554 26.7322C74.6771 26.9558 74.159 27.0835 73.6307 27.108C73.1865 27.132 72.7425 27.0578 72.3308 26.8907C71.919 26.7235 71.5501 26.4676 71.2505 26.1416V30.0544H68.8533V18.9672H71.2505V19.7112C71.5502 19.3855 71.9193 19.1298 72.3309 18.9628C72.7427 18.7958 73.1866 18.7216 73.6307 18.7456C74.1591 18.77 74.6774 18.8977 75.1558 19.1214C75.6342 19.3451 76.0632 19.6603 76.4181 20.0489C76.7731 20.4375 77.0471 20.8919 77.2241 21.3859C77.4012 21.8799 77.4781 22.4037 77.4501 22.9272ZM75.0529 22.9272C75.0436 22.5566 74.9241 22.1969 74.7095 21.8931C74.4949 21.5895 74.1947 21.3552 73.8465 21.2199C73.4982 21.0844 73.1174 21.0538 72.7517 21.1319C72.386 21.2099 72.0517 21.3931 71.7905 21.6585C71.5293 21.924 71.3529 22.2599 71.2834 22.6243C71.2139 22.9886 71.2544 23.3651 71.3997 23.7067C71.545 24.0484 71.7889 24.3399 72.1006 24.545C72.4123 24.7499 72.778 24.8593 73.1521 24.8592C73.4089 24.8706 73.6653 24.8279 73.9044 24.7342C74.1434 24.6405 74.3598 24.4977 74.5392 24.3153C74.7187 24.1328 74.8572 23.9149 74.9457 23.6757C75.0343 23.4365 75.0709 23.1814 75.0529 22.9272Z" fill="#B4B7C9"/>
<path d="M84.8476 24.5104C84.8476 26.332 83.2503 27.108 81.5246 27.108C80.8273 27.1706 80.1272 27.0245 79.5147 26.6884C78.9021 26.3524 78.4054 25.842 78.0886 25.2232L80.1654 24.0512C80.2494 24.3372 80.4299 24.5861 80.6766 24.7561C80.9233 24.9262 81.2219 25.0072 81.5214 24.9856C82.0961 24.9856 82.3842 24.8112 82.3842 24.4952C82.3842 23.6232 78.4526 24.0832 78.4526 21.3432C78.4526 19.616 79.9233 18.7456 81.5852 18.7456C82.2099 18.726 82.8282 18.8729 83.3762 19.1709C83.9243 19.469 84.3819 19.9072 84.7007 20.44L82.6554 21.5328C82.5658 21.3254 82.4165 21.1487 82.226 21.0248C82.0355 20.9008 81.8128 20.8352 81.5852 20.836C81.1695 20.836 80.9136 20.996 80.9136 21.2792C80.9168 22.1824 84.8476 21.58 84.8476 24.5104Z" fill="#B4B7C9"/>
<path d="M93.6044 18.9672V26.8872H91.2072V26.1424C90.9303 26.471 90.5792 26.73 90.1821 26.898C89.785 27.066 89.354 27.1382 88.9229 27.1088C87.3087 27.1088 85.9365 25.9688 85.9365 23.8288V18.9672H88.3337V23.4808C88.3136 23.6694 88.3353 23.8601 88.3975 24.0396C88.4588 24.2191 88.5597 24.3831 88.6921 24.5201C88.8245 24.6572 88.9851 24.764 89.1635 24.8332C89.3411 24.9024 89.5323 24.9323 89.7236 24.9208C90.6026 24.9208 91.2096 24.4144 91.2096 23.2896V18.9696L93.6044 18.9672Z" fill="#B4B7C9"/>
<path d="M107.35 22.024V26.8864H104.953V22.2296C104.953 21.4376 104.569 20.9312 103.803 20.9312C103.004 20.9312 102.556 21.4856 102.556 22.42V26.8864H100.159V22.2296C100.159 21.4376 99.7758 20.9312 99.0082 20.9312C98.2091 20.9312 97.762 21.4856 97.762 22.42V26.8864H95.3647V18.9664H97.762V19.6944C98.0106 19.3714 98.3366 19.1153 98.7103 18.9494C99.0849 18.7835 99.4949 18.7132 99.9033 18.7448C100.313 18.7249 100.722 18.8107 101.089 18.9938C101.455 19.1769 101.768 19.4511 101.996 19.7896C102.262 19.4355 102.614 19.1538 103.019 18.9711C103.424 18.7884 103.87 18.7106 104.314 18.7448C106.148 18.7456 107.35 20.044 107.35 22.024Z" fill="#B4B7C9"/>
<path d="M109.378 18.9184C110.36 18.9184 111.157 18.1289 111.157 17.1552C111.157 16.1814 110.36 15.392 109.378 15.392C108.395 15.392 107.599 16.1814 107.599 17.1552C107.599 18.1289 108.395 18.9184 109.378 18.9184Z" fill="#B4B7C9"/>
</svg>
