<svg width="113" height="44" viewBox="0 0 113 44" fill="none" xmlns="http://www.w3.org/2000/svg">
<path d="M32.967 16.6514H35.715V27.7943H32.967V16.6514ZM36.8108 23.6028C36.8108 20.8428 38.5229 19.1885 41.0911 19.1885C43.6592 19.1885 45.3714 20.8428 45.3714 23.6028C45.3714 26.3628 43.7192 28.0343 41.0911 28.0343C38.463 28.0343 36.8108 26.4228 36.8108 23.6028ZM42.6491 23.6028C42.6491 22.0857 42.0584 21.1943 41.1167 21.1943C40.1751 21.1943 39.593 22.0514 39.593 23.6028C39.593 25.1543 40.1751 26.0028 41.1167 26.0028C42.0584 26.0028 42.6662 25.1543 42.6662 23.6114L42.6491 23.6028ZM46.4671 28.3685H49.1209C49.2417 28.6546 49.4527 28.8933 49.7217 29.048C49.9907 29.2028 50.3028 29.2652 50.6105 29.2257C51.6634 29.2257 52.2113 28.66 52.2113 27.82V26.2771H52.2198C51.9931 26.7575 51.6263 27.1579 51.168 27.4257C50.7096 27.6935 50.181 27.8159 49.6517 27.7771C47.6399 27.7771 46.3045 26.2428 46.3045 23.6028C46.3045 20.9628 47.58 19.3171 49.7287 19.3171C50.2715 19.2881 50.8101 19.4282 51.27 19.7183C51.7299 20.0085 52.0887 20.4343 52.2969 20.9371H52.2198V19.3857H54.9421V27.7343C54.9421 29.7485 53.1615 31.0085 50.542 31.0085C48.1621 31 46.6383 29.9114 46.4842 28.3771L46.4671 28.3685ZM52.2198 23.6028C52.2198 22.2571 51.6035 21.4085 50.6276 21.4085C49.6517 21.4085 49.0524 22.2657 49.0524 23.6028C49.0524 24.94 49.6431 25.7285 50.6276 25.7285C51.612 25.7285 52.2198 25 52.2198 23.6028ZM56.0293 23.6028C56.0293 20.8428 57.7414 19.1885 60.3096 19.1885C62.8778 19.1885 64.5899 20.8428 64.5899 23.6028C64.5899 26.3628 62.9292 28.0343 60.3096 28.0343C57.6901 28.0343 56.0464 26.4228 56.0464 23.6028H56.0293ZM61.8676 23.6028C61.8676 22.0857 61.2684 21.1943 60.3353 21.1943C59.4022 21.1943 58.8115 22.0514 58.8115 23.6028C58.8115 25.1543 59.3936 26.0028 60.3353 26.0028C61.277 26.0028 61.8848 25.1543 61.8848 23.6114L61.8676 23.6028ZM65.7028 17.3543C65.6908 17.074 65.7629 16.7965 65.9097 16.5576C66.0565 16.3187 66.2714 16.1292 66.5267 16.0136C66.782 15.8979 67.0659 15.8614 67.3421 15.9087C67.6182 15.9559 67.8739 16.0848 68.0763 16.2788C68.2787 16.4729 68.4185 16.723 68.4777 16.9972C68.5369 17.2714 68.5128 17.5571 68.4086 17.8174C68.3043 18.0778 68.1246 18.301 67.8926 18.4583C67.6606 18.6155 67.3869 18.6997 67.1067 18.7C66.9277 18.7045 66.7495 18.6734 66.5826 18.6085C66.4156 18.5435 66.2632 18.446 66.1342 18.3216C66.0052 18.1973 65.9021 18.0485 65.831 17.8838C65.7599 17.7192 65.7221 17.5421 65.7199 17.3628L65.7028 17.3543ZM65.7028 19.3771H68.485V27.8285H65.7456L65.7028 19.3771ZM78.4923 23.6028C78.4923 26.3543 77.2596 27.9485 75.1623 27.9485C74.6254 27.9817 74.0912 27.849 73.6319 27.5686C73.1726 27.288 72.8104 26.8732 72.5941 26.38H72.5427V30.5457H69.7948V19.4028H72.5256V20.9114H72.577C72.7858 20.4085 73.1445 19.9823 73.6041 19.6908C74.0637 19.3994 74.6018 19.2569 75.1451 19.2828C77.3024 19.2657 78.5437 20.8514 78.5437 23.6114L78.4923 23.6028ZM75.693 23.6028C75.693 22.2657 75.0681 21.4 74.1008 21.4C73.1334 21.4 72.5256 22.2571 72.517 23.6028C72.5085 24.9485 73.1334 25.7971 74.1008 25.7971C75.0681 25.7971 75.7444 25 75.7444 23.6114L75.693 23.6028ZM83.1836 19.18C85.4864 19.18 86.916 20.2685 86.9331 22.0171H84.4249C84.4249 21.4085 83.9198 21.0314 83.1664 21.0314C82.4131 21.0314 82.0536 21.3228 82.0536 21.76C82.0536 22.1971 82.3703 22.3343 83.0038 22.4628L84.7673 22.8228C86.4794 23.1828 87.1642 23.8685 87.1642 25.1457C87.1642 26.86 85.5805 28.0257 83.2264 28.0257C80.8722 28.0257 79.3398 26.8943 79.2286 25.1714H81.8909C81.968 25.7971 82.4645 26.1657 83.2692 26.1657C84.0739 26.1657 84.4505 25.9085 84.4505 25.4543C84.4505 25 84.1937 24.9228 83.5345 24.7857L81.9423 24.4514C80.2901 24.1 79.4255 23.2343 79.4255 21.94C79.4768 20.26 80.915 19.1885 83.2349 19.1885L83.1836 19.18ZM96.3669 27.82H93.7045V26.2343H93.6532C93.5042 26.7632 93.1798 27.2255 92.7329 27.5448C92.2861 27.8643 91.7442 28.0217 91.1963 27.9914C90.7828 28.0049 90.3702 27.9306 89.9875 27.7734C89.6049 27.6163 89.259 27.3798 88.9739 27.0796C88.688 26.7792 88.4697 26.4219 88.3319 26.031C88.1941 25.6402 88.1402 25.2245 88.1744 24.8114V19.3857H90.9223V24.22C90.9223 25.2143 91.4445 25.7543 92.3006 25.7543C92.5018 25.7527 92.6995 25.7081 92.8819 25.6234C93.0642 25.5386 93.226 25.4157 93.3561 25.2629C93.4871 25.1102 93.5838 24.9311 93.6395 24.7379C93.6943 24.5447 93.708 24.3418 93.6789 24.1428V19.3857H96.4183L96.3669 27.82ZM97.6938 19.3771H100.365V21.0057H100.425C100.572 20.4839 100.889 20.026 101.323 19.7033C101.759 19.3808 102.289 19.2118 102.83 19.2228C103.374 19.1755 103.916 19.3329 104.349 19.6642C104.783 19.9955 105.077 20.4769 105.176 21.0143H105.296C105.467 20.474 105.811 20.0055 106.276 19.6816C106.74 19.3576 107.299 19.1963 107.864 19.2228C108.24 19.2085 108.615 19.2738 108.963 19.4145C109.312 19.5551 109.627 19.7679 109.888 20.039C110.149 20.31 110.35 20.6333 110.477 20.9874C110.606 21.3416 110.657 21.7187 110.629 22.0943V27.8285H107.864V22.7971C107.864 21.94 107.461 21.46 106.682 21.46C106.509 21.4571 106.338 21.4918 106.18 21.5614C106.022 21.6311 105.881 21.7342 105.766 21.8636C105.652 21.9931 105.566 22.1458 105.516 22.3114C105.466 22.477 105.452 22.6514 105.475 22.8228V27.8285H102.856V22.7714C102.856 21.9143 102.436 21.46 101.683 21.46C101.508 21.4586 101.335 21.4946 101.176 21.5656C101.016 21.6366 100.874 21.7409 100.758 21.8717C100.642 22.0024 100.556 22.1564 100.504 22.3234C100.452 22.4904 100.437 22.6666 100.459 22.84V27.8285H97.7109L97.6938 19.3771Z" fill="#B4B7C9"/>
<path d="M27.5308 17.38C27.5309 15.674 27.0164 14.0078 26.0547 12.5996C25.093 11.1913 23.7289 10.1067 22.1412 9.48787C20.5534 8.86901 18.816 8.74472 17.1565 9.13129C15.4969 9.51785 13.9928 10.3972 12.8408 11.6543H2.15723V34.2314H24.7144V23.68C25.5997 22.8871 26.3082 21.9163 26.7935 20.8307C27.2788 19.7451 27.5301 18.5694 27.5308 17.38ZM23.1906 17.38C23.1923 18.1974 22.9518 18.9971 22.4994 19.6776C22.047 20.3581 21.4033 20.8891 20.6494 21.203C19.8956 21.5171 19.0657 21.6001 18.2647 21.4417C17.4637 21.2833 16.7277 20.8904 16.1498 20.313C15.5719 19.7355 15.1781 18.9994 15.0182 18.1977C14.8582 17.3961 14.9395 16.5649 15.2515 15.8095C15.5635 15.0541 16.0924 14.4084 16.7711 13.954C17.4499 13.4997 18.248 13.2571 19.0644 13.2571C20.1573 13.2571 21.2055 13.6912 21.979 14.4642C22.7527 15.2371 23.1884 16.2858 23.1906 17.38ZM20.3742 29.8857H6.49745V16H10.7264C10.6447 16.4556 10.6017 16.9172 10.598 17.38C10.6003 19.6276 11.493 21.7825 13.0803 23.3718C14.6675 24.961 16.8196 25.8549 19.0644 25.8571C19.5033 25.8548 19.9413 25.8175 20.3742 25.7457V29.8857Z" fill="#B4B7C9"/>
</svg>
